<svg width="31" height="32" viewBox="0 0 31 32" fill="none" xmlns="http://www.w3.org/2000/svg">
<path d="M20.844 16.6889C20.9468 13.2695 21.3907 10.8273 21.6501 9.99828C22.1774 8.31361 22.047 6.18514 21.0244 4.6024C19.7462 2.62396 17.8134 2.32181 17.0753 2.42159C16.159 2.54544 15.4007 3.26258 14.8495 4.74561C14.3111 6.19449 14.8114 8.48978 15.56 10.002C16.3087 11.5142 16.6246 12.7008 16.135 16.173C15.7433 18.9508 16.8842 19.99 17.5036 20.1624C18.9969 20.4727 20.7497 19.8261 20.844 16.6889Z" fill="#059669"/>
<path d="M10.8384 26.2884C9.48578 23.1462 8.17511 21.0381 7.6291 20.3626C6.51948 18.9897 5.85826 16.9623 6.22739 15.1145C6.68879 12.8047 8.3752 11.8132 9.09832 11.6346C9.99598 11.413 10.9648 11.8011 12.0226 12.9777C13.056 14.1272 13.4345 16.4457 13.2941 18.1272C13.1538 19.8088 13.2962 21.0284 15.028 24.0775C16.4134 26.5168 15.7344 27.9027 15.2218 28.2907C13.9471 29.1282 12.0793 29.1712 10.8384 26.2884Z" fill="#059669"/>
</svg>
