<svg width="30" height="30" viewBox="0 0 30 30" fill="none" xmlns="http://www.w3.org/2000/svg">
<path d="M0 5.27344C0 2.361 2.361 0 5.27344 0H24.7266C27.639 0 30 2.361 30 5.27344V24.7266C30 27.639 27.639 30 24.7266 30H5.27344C2.361 30 0 27.639 0 24.7266V5.27344Z" fill="#05523C"/>
<path fill-rule="evenodd" clip-rule="evenodd" d="M24.7266 1.17188H5.27344C3.00821 1.17188 1.17188 3.00821 1.17188 5.27344V24.7266C1.17188 26.9918 3.00821 28.8281 5.27344 28.8281H24.7266C26.9918 28.8281 28.8281 26.9918 28.8281 24.7266V5.27344C28.8281 3.00821 26.9918 1.17188 24.7266 1.17188ZM5.27344 0C2.361 0 0 2.361 0 5.27344V24.7266C0 27.639 2.361 30 5.27344 30H24.7266C27.639 30 30 27.639 30 24.7266V5.27344C30 2.361 27.639 0 24.7266 0H5.27344Z" fill="#047857"/>
<path fill-rule="evenodd" clip-rule="evenodd" d="M5.21485 28.8281L5.21485 1.17188H5.27344V28.8281H5.21485Z" fill="white" fill-opacity="0.2"/>
<path fill-rule="evenodd" clip-rule="evenodd" d="M16.9922 28.8281V1.17188H17.0508V28.8281H16.9922Z" fill="white" fill-opacity="0.2"/>
<path fill-rule="evenodd" clip-rule="evenodd" d="M28.8281 20.625H1.17188V20.5664H28.8281V20.625Z" fill="white" fill-opacity="0.2"/>
<path fill-rule="evenodd" clip-rule="evenodd" d="M28.8281 8.84766H1.17188V8.78906H28.8281V8.84766Z" fill="white" fill-opacity="0.2"/>
<path fill-rule="evenodd" clip-rule="evenodd" d="M19.4117 6.03674C19.3718 5.99569 19.334 5.94964 19.2982 5.89795L19.4909 5.76454C19.5196 5.80609 19.5494 5.84208 19.5799 5.87349L19.4117 6.03674ZM20.0379 6.3465C19.9282 6.32401 19.8159 6.29434 19.7074 6.24463L19.805 6.03154C19.8905 6.07072 19.9833 6.09606 20.085 6.1169L20.0379 6.3465ZM20.6453 6.47965C20.5515 6.44524 20.4549 6.4227 20.3546 6.40365L20.3983 6.17339C20.5041 6.19348 20.6149 6.21885 20.726 6.25961L20.6453 6.47965ZM21.1073 6.81264C21.0395 6.72909 20.9697 6.66434 20.8991 6.61316L21.0365 6.42332C21.1243 6.48692 21.209 6.56596 21.2893 6.66492L21.1073 6.81264ZM21.3386 7.1981C21.3164 7.14924 21.2938 7.10366 21.2708 7.06114L21.477 6.94974C21.5027 6.99725 21.5277 7.04764 21.552 7.10112L21.3386 7.1981Z" fill="white"/>
<path fill-rule="evenodd" clip-rule="evenodd" d="M22.4107 9.73443C22.4219 9.82135 22.4264 9.90318 22.4238 9.98012L22.0724 9.96784C22.0743 9.91318 22.0712 9.85081 22.062 9.77963L22.4107 9.73443ZM22.2439 10.4871C22.1275 10.6228 21.9677 10.7036 21.7931 10.7554L21.6931 10.4184C21.8313 10.3773 21.9208 10.3238 21.9772 10.2582L22.2439 10.4871ZM21.3388 10.8388C21.2017 10.8536 21.054 10.8636 20.8996 10.8724L20.8796 10.5214C21.0326 10.5127 21.173 10.5031 21.3011 10.4893L21.3388 10.8388ZM20.4688 10.8959C20.3313 10.9039 20.1894 10.9133 20.0435 10.9261L20.0128 10.5759C20.1633 10.5627 20.309 10.553 20.4484 10.5449L20.4688 10.8959ZM19.6235 10.9726C19.4874 10.9912 19.349 11.0139 19.2089 11.0421L19.1397 10.6974C19.2878 10.6676 19.4334 10.6438 19.5759 10.6243L19.6235 10.9726ZM18.8021 11.1392C18.6706 11.1759 18.5383 11.2183 18.4056 11.2675L18.2834 10.9378C18.4258 10.8851 18.5674 10.8397 18.7076 10.8006L18.8021 11.1392ZM18.0223 11.429C17.9603 11.4584 17.8983 11.4895 17.8364 11.5224L17.6714 11.212C17.7381 11.1765 17.8048 11.143 17.8715 11.1114L18.0223 11.429Z" fill="white"/>
<path d="M19.0364 4.62456C19.2374 4.91229 19.1671 5.30849 18.8794 5.50949C18.5916 5.71049 18.1954 5.64017 17.9944 5.35244C17.7934 5.0647 17.8638 4.66851 18.1515 4.46751C18.4392 4.26651 18.8354 4.33682 19.0364 4.62456Z" fill="white" fill-opacity="0.2"/>
<path fill-rule="evenodd" clip-rule="evenodd" d="M18.8458 5.46145C19.107 5.27899 19.1709 4.91932 18.9884 4.65811C18.8059 4.39691 18.4463 4.33308 18.1851 4.51554C17.9238 4.69801 17.86 5.05768 18.0425 5.31888C18.2249 5.58009 18.5846 5.64392 18.8458 5.46145ZM18.8794 5.50949C19.1671 5.30849 19.2374 4.91229 19.0364 4.62456C18.8354 4.33682 18.4392 4.26651 18.1515 4.46751C17.8638 4.66851 17.7934 5.0647 17.9944 5.35244C18.1954 5.64017 18.5916 5.71049 18.8794 5.50949Z" fill="white"/>
<path fill-rule="evenodd" clip-rule="evenodd" d="M18.9671 5.63512C19.3243 5.38565 19.4115 4.89392 19.1621 4.5368C18.9126 4.17968 18.4209 4.09241 18.0637 4.34188C17.7066 4.59135 17.6194 5.08308 17.8688 5.4402C18.1183 5.79731 18.61 5.88458 18.9671 5.63512ZM19.0007 5.68315C19.3843 5.41515 19.4781 4.88689 19.2101 4.50325C18.9421 4.1196 18.4138 4.02585 18.0302 4.29385C17.6465 4.56184 17.5528 5.09011 17.8208 5.47375C18.0888 5.8574 18.617 5.95115 19.0007 5.68315Z" fill="white"/>
<path d="M18.8193 4.7762C18.9366 4.94405 18.8956 5.17516 18.7277 5.29241C18.5599 5.40966 18.3288 5.36864 18.2115 5.2008C18.0943 5.03295 18.1353 4.80184 18.3031 4.68459C18.471 4.56734 18.7021 4.60836 18.8193 4.7762Z" fill="white"/>
<path fill-rule="evenodd" clip-rule="evenodd" d="M8.15581 18.8886C8.12955 18.7568 8.10717 18.6265 8.08888 18.4985L8.66893 18.4156C8.68563 18.5325 8.70618 18.6523 8.73045 18.7741L8.15581 18.8886ZM8.60837 20.3951C8.50955 20.1511 8.42216 19.9018 8.34719 19.6527L8.90827 19.4838C8.97818 19.7161 9.0596 19.9484 9.15145 20.1751L8.60837 20.3951ZM9.36113 21.7918C9.20942 21.5809 9.06932 21.3518 8.94165 21.1118L9.45896 20.8366C9.57596 21.0566 9.70244 21.2629 9.83683 21.4497L9.36113 21.7918ZM10.6088 22.8841C10.3518 22.7734 10.1145 22.6082 9.89831 22.4084L10.2961 21.9781C10.4747 22.1432 10.6572 22.267 10.8406 22.346L10.6088 22.8841ZM11.9368 22.9227C11.79 22.9765 11.6431 23.0107 11.4969 23.026L11.436 22.4432C11.5322 22.4332 11.6318 22.4104 11.7351 22.3725L11.9368 22.9227Z" fill="white"/>
<path fill-rule="evenodd" clip-rule="evenodd" d="M14.817 13.345C14.7193 13.3809 14.6192 13.4127 14.5174 13.4412L14.3909 12.9899C14.4824 12.9642 14.5708 12.9361 14.6557 12.905L14.817 13.345ZM13.9144 13.5742C13.7175 13.6081 13.5165 13.6356 13.3153 13.6601L13.2586 13.1948C13.4558 13.1708 13.6484 13.1444 13.8347 13.1122L13.9144 13.5742ZM12.7231 13.7274C12.5257 13.7494 12.331 13.772 12.1401 13.7985L12.0757 13.3342C12.2731 13.3068 12.473 13.2836 12.6711 13.2615L12.7231 13.7274ZM11.5712 13.8952C11.3795 13.9356 11.1977 13.9838 11.0279 14.0432L10.873 13.6008C11.0663 13.5331 11.2684 13.48 11.4746 13.4365L11.5712 13.8952ZM10.5363 14.2719C10.3848 14.365 10.2511 14.4749 10.1371 14.6057L9.78366 14.2978C9.93223 14.1273 10.1036 13.9877 10.2907 13.8726L10.5363 14.2719ZM9.8643 15.045C9.83108 15.123 9.80168 15.2068 9.77661 15.2971L9.32496 15.1716C9.3553 15.0624 9.39142 14.959 9.43308 14.8613L9.8643 15.045Z" fill="white"/>
<path d="M19.2197 20.219C17.554 19.2052 16.4686 18.2975 16.1308 17.9355C15.4444 17.1998 14.3528 16.6651 13.2804 16.7262C11.94 16.8026 11.246 17.6754 11.0876 18.0693C10.891 18.5583 11.0328 19.136 11.6126 19.8268C12.1791 20.5016 13.4575 20.9 14.4177 20.9548C15.378 21.0096 16.055 21.1871 17.638 22.4075C18.9044 23.3838 19.7407 23.111 20.0005 22.8526C20.5748 22.1999 20.7479 21.1492 19.2197 20.219Z" fill="white"/>
<path d="M21.1597 27.8809C19.2215 27.6665 17.8077 27.7224 17.3192 27.8028C16.3263 27.9662 15.1354 27.723 14.3235 27.0197C13.3087 26.1406 13.2922 25.0256 13.4073 24.617C13.5503 24.1097 14.0154 23.7388 14.8964 23.5459C15.7571 23.3575 17.0127 23.8227 17.8065 24.3658C18.6004 24.9088 19.2449 25.1817 21.2437 25.182C22.8427 25.1823 23.3384 25.909 23.3863 26.2724C23.4424 27.14 22.9378 28.0777 21.1597 27.8809Z" fill="white"/>
<path d="M16.6865 13.1018C16.2567 13.3108 15.7388 13.1319 15.5298 12.7021C15.3207 12.2723 15.4996 11.7544 15.9294 11.5454C16.3592 11.3363 16.8771 11.5152 17.0862 11.945C17.2952 12.3748 17.1163 12.8927 16.6865 13.1018Z" fill="white" fill-opacity="0.2"/>
<path fill-rule="evenodd" clip-rule="evenodd" d="M15.6351 12.6509C15.8159 13.0224 16.2636 13.1771 16.6352 12.9964C17.0068 12.8156 17.1615 12.3679 16.9808 11.9963C16.8 11.6247 16.3523 11.47 15.9807 11.6508C15.6091 11.8315 15.4544 12.2793 15.6351 12.6509ZM15.5298 12.7021C15.7388 13.1319 16.2567 13.3108 16.6865 13.1018C17.1163 12.8927 17.2952 12.3748 17.0862 11.945C16.8771 11.5152 16.3592 11.3363 15.9294 11.5454C15.4996 11.7544 15.3207 12.2723 15.5298 12.7021Z" fill="white"/>
<path fill-rule="evenodd" clip-rule="evenodd" d="M15.3757 12.777C15.6262 13.2919 16.2466 13.5062 16.7614 13.2558C17.2763 13.0054 17.4906 12.385 17.2402 11.8701C16.9897 11.3553 16.3693 11.1409 15.8545 11.3914C15.3396 11.6418 15.1253 12.2622 15.3757 12.777ZM15.2704 12.8283C15.5491 13.4014 16.2396 13.6399 16.8127 13.3612C17.3857 13.0824 17.6243 12.3919 17.3456 11.8188C17.0668 11.2458 16.3763 11.0072 15.8032 11.286C15.2302 11.5647 14.9916 12.2552 15.2704 12.8283Z" fill="white"/>
<path d="M16.5288 12.7775C16.2781 12.8995 15.976 12.7951 15.854 12.5444C15.732 12.2937 15.8364 11.9916 16.0871 11.8696C16.3378 11.7477 16.6399 11.852 16.7619 12.1028C16.8839 12.3535 16.7795 12.6556 16.5288 12.7775Z" fill="white"/>
<path d="M8.73258 17.5935C8.23631 17.7265 7.7262 17.432 7.59322 16.9357C7.46024 16.4394 7.75475 15.9293 8.25103 15.7963C8.74731 15.6634 9.25742 15.9579 9.3904 16.4542C9.52338 16.9504 9.22886 17.4605 8.73258 17.5935Z" fill="white" fill-opacity="0.2"/>
<path fill-rule="evenodd" clip-rule="evenodd" d="M7.70641 16.9054C7.82264 17.3391 8.26849 17.5966 8.70225 17.4803C9.13602 17.3641 9.39343 16.9182 9.2772 16.4845C9.16098 16.0507 8.71512 15.7933 8.28136 15.9095C7.8476 16.0258 7.59019 16.4716 7.70641 16.9054ZM7.59322 16.9357C7.7262 17.432 8.23631 17.7265 8.73258 17.5935C9.22886 17.4605 9.52338 16.9504 9.3904 16.4542C9.25742 15.9579 8.74731 15.6634 8.25103 15.7963C7.75475 15.9293 7.46024 16.4394 7.59322 16.9357Z" fill="white"/>
<path fill-rule="evenodd" clip-rule="evenodd" d="M7.40688 16.9856C7.56743 17.5848 8.18332 17.9404 8.78251 17.7799C9.3817 17.6193 9.73728 17.0034 9.57673 16.4042C9.41618 15.805 8.80029 15.4495 8.2011 15.61C7.60191 15.7706 7.24633 16.3865 7.40688 16.9856ZM7.29369 17.016C7.47099 17.6777 8.15114 18.0704 8.81284 17.8931C9.47455 17.7158 9.86723 17.0356 9.68993 16.3739C9.51262 15.7122 8.83248 15.3195 8.17077 15.4968C7.50907 15.6741 7.11638 16.3543 7.29369 17.016Z" fill="white"/>
<path d="M8.63226 17.2191C8.34276 17.2967 8.0452 17.1249 7.96763 16.8354C7.89006 16.5459 8.06186 16.2483 8.35135 16.1708C8.64085 16.0932 8.93841 16.265 9.01598 16.5545C9.09355 16.844 8.92175 17.1415 8.63226 17.2191Z" fill="white"/>
<path d="M22.6198 8.41406C22.6705 8.79907 22.3994 9.15221 22.0144 9.20283C21.6294 9.25345 21.2762 8.98237 21.2256 8.59736C21.175 8.21234 21.4461 7.8592 21.8311 7.80858C22.2161 7.75796 22.5692 8.02904 22.6198 8.41406Z" fill="white" fill-opacity="0.2"/>
<path fill-rule="evenodd" clip-rule="evenodd" d="M22.0067 9.14474C22.3597 9.09834 22.6082 8.77462 22.5618 8.42169C22.5154 8.06876 22.1916 7.82027 21.8387 7.86667C21.4858 7.91307 21.2373 8.23679 21.2837 8.58972C21.3301 8.94265 21.6538 9.19114 22.0067 9.14474ZM22.0144 9.20283C22.3994 9.15221 22.6705 8.79907 22.6198 8.41406C22.5692 8.02904 22.2161 7.75796 21.8311 7.80858C21.4461 7.8592 21.175 8.21234 21.2256 8.59736C21.2762 8.98237 21.6294 9.25345 22.0144 9.20283Z" fill="white"/>
<path fill-rule="evenodd" clip-rule="evenodd" d="M22.0373 9.37711C22.5186 9.31384 22.8574 8.87241 22.7941 8.39114C22.7309 7.90988 22.2894 7.57103 21.8082 7.6343C21.3269 7.69757 20.988 8.139 21.0513 8.62027C21.1146 9.10153 21.556 9.44038 22.0373 9.37711ZM22.0449 9.43521C22.5583 9.36772 22.9197 8.89685 22.8522 8.3835C22.7847 7.87016 22.3139 7.50871 21.8005 7.5762C21.2872 7.64369 20.9257 8.11456 20.9932 8.62791C21.0607 9.14126 21.5316 9.5027 22.0449 9.43521Z" fill="white"/>
<path d="M22.3294 8.45224C22.3589 8.67683 22.2008 8.88284 21.9762 8.91236C21.7516 8.94189 21.5456 8.78376 21.5161 8.55917C21.4865 8.33458 21.6447 8.12858 21.8693 8.09905C22.0938 8.06952 22.2999 8.22765 22.3294 8.45224Z" fill="white"/>
</svg>
