<svg width="142" height="177" viewBox="0 0 142 177" fill="none" xmlns="http://www.w3.org/2000/svg">
<path fill-rule="evenodd" clip-rule="evenodd" d="M96.8163 25.5452C96.5641 25.2857 96.3244 24.9946 96.0979 24.6679L97.3174 23.8245C97.4994 24.0871 97.6875 24.3147 97.8805 24.5132L96.8163 25.5452ZM100.779 27.5034C100.085 27.3613 99.3742 27.1737 98.6874 26.8594L99.3051 25.5124C99.8463 25.76 100.434 25.9202 101.077 26.052L100.779 27.5034ZM104.623 28.3451C104.029 28.1276 103.418 27.9851 102.783 27.8647L103.059 26.4091C103.729 26.5361 104.43 26.6964 105.134 26.9541L104.623 28.3451ZM107.546 30.4502C107.117 29.922 106.676 29.5127 106.228 29.1891L107.098 27.989C107.654 28.3911 108.19 28.8908 108.698 29.5164L107.546 30.4502ZM109.01 32.8869C108.869 32.578 108.726 32.2899 108.581 32.0211L109.886 31.3169C110.048 31.6172 110.206 31.9358 110.36 32.2738L109.01 32.8869Z" fill="white"/>
<path fill-rule="evenodd" clip-rule="evenodd" d="M115.794 48.9207C115.865 49.4702 115.894 49.9875 115.877 50.4738L113.654 50.3963C113.666 50.0507 113.646 49.6564 113.588 49.2064L115.794 48.9207ZM114.739 53.6791C114.002 54.5364 112.991 55.0472 111.886 55.3748L111.253 53.2442C112.128 52.9848 112.694 52.6467 113.051 52.2315L114.739 53.6791ZM109.011 55.9023C108.143 55.9959 107.209 56.0587 106.232 56.1144L106.105 53.8955C107.074 53.8404 107.962 53.7801 108.772 53.6927L109.011 55.9023ZM103.506 56.2631C102.636 56.3137 101.737 56.3733 100.815 56.4542L100.62 54.2403C101.573 54.1568 102.494 54.0957 103.376 54.0444L103.506 56.2631ZM98.1563 56.7483C97.295 56.8658 96.4194 57.0092 95.5332 57.1871L95.0949 55.0082C96.032 54.8201 96.9539 54.6692 97.8552 54.5463L98.1563 56.7483ZM92.9586 57.8012C92.1268 58.0332 91.2893 58.3013 90.4494 58.6122L89.6764 56.5282C90.5774 56.1947 91.4734 55.908 92.3605 55.6606L92.9586 57.8012ZM88.0237 59.6329C87.6316 59.8189 87.2395 60.0155 86.8478 60.2236L85.8034 58.2612C86.2254 58.0371 86.6476 57.8254 87.0696 57.6252L88.0237 59.6329Z" fill="white"/>
<path d="M94.4416 16.6179C95.7135 18.4369 95.2685 20.9415 93.4477 22.2121C91.6269 23.4828 89.1198 23.0383 87.8478 21.2193C86.5759 19.4004 87.0208 16.8957 88.8417 15.6251C90.6625 14.3545 93.1696 14.799 94.4416 16.6179Z" fill="white" fill-opacity="0.2"/>
<path fill-rule="evenodd" clip-rule="evenodd" d="M93.2354 21.9085C94.8883 20.755 95.2923 18.4813 94.1376 16.83C92.9829 15.1788 90.7069 14.7753 89.054 15.9288C87.4011 17.0822 86.9971 19.3559 88.1518 21.0072C89.3065 22.6584 91.5825 23.062 93.2354 21.9085ZM93.4477 22.2121C95.2685 20.9415 95.7135 18.4369 94.4416 16.6179C93.1696 14.799 90.6625 14.3545 88.8417 15.6251C87.0208 16.8957 86.5759 19.4004 87.8478 21.2193C89.1198 23.0383 91.6269 23.4828 93.4477 22.2121Z" fill="white"/>
<path fill-rule="evenodd" clip-rule="evenodd" d="M94.0031 23.0063C96.2629 21.4293 96.8152 18.3207 95.2365 16.0631C93.6579 13.8056 90.5462 13.2539 88.2863 14.8309C86.0264 16.408 85.4742 19.5165 87.0528 21.7741C88.6315 24.0317 91.7432 24.5833 94.0031 23.0063ZM94.2154 23.31C96.6432 21.6158 97.2364 18.2763 95.5405 15.851C93.8446 13.4257 90.5017 12.8331 88.074 14.5273C85.6462 16.2215 85.053 19.5609 86.7489 21.9862C88.4448 24.4115 91.7877 25.0041 94.2154 23.31Z" fill="white"/>
<path d="M93.0679 17.5765C93.8098 18.6376 93.5503 20.0986 92.4881 20.8398C91.426 21.581 89.9635 21.3217 89.2215 20.2607C88.4796 19.1996 88.7391 17.7386 89.8013 16.9974C90.8634 16.2562 92.3259 16.5155 93.0679 17.5765Z" fill="white"/>
<path fill-rule="evenodd" clip-rule="evenodd" d="M25.5881 106.79C25.4218 105.957 25.2802 105.133 25.1645 104.324L28.8351 103.8C28.9408 104.539 29.0708 105.296 29.2244 106.066L25.5881 106.79ZM28.4519 116.314C27.8265 114.771 27.2736 113.195 26.7991 111.62L30.3497 110.553C30.7921 112.021 31.3073 113.49 31.8885 114.923L28.4519 116.314ZM33.2154 125.143C32.2554 123.81 31.3688 122.361 30.5609 120.844L33.8345 119.105C34.5749 120.495 35.3753 121.799 36.2257 122.981L33.2154 125.143ZM41.1106 132.048C39.4843 131.349 37.9831 130.304 36.6147 129.041L39.1317 126.321C40.2619 127.365 41.4168 128.147 42.5774 128.646L41.1106 132.048ZM49.5144 132.292C48.5854 132.632 47.6559 132.849 46.7304 132.945L46.3456 129.261C46.9542 129.198 47.5846 129.054 48.238 128.814L49.5144 132.292Z" fill="white"/>
<path fill-rule="evenodd" clip-rule="evenodd" d="M67.7407 71.7458C67.1225 71.9722 66.4891 72.1735 65.8448 72.3538L65.0445 69.5004C65.6235 69.3384 66.1825 69.1604 66.7196 68.9636L67.7407 71.7458ZM62.0289 73.1942C60.7832 73.4089 59.5111 73.5824 58.2377 73.7374L57.8791 70.7958C59.1267 70.644 60.3456 70.4773 61.5245 70.2741L62.0289 73.1942ZM54.4905 74.1627C53.2411 74.302 52.0088 74.4446 50.8011 74.612L50.3934 71.6769C51.6425 71.5037 52.9076 71.3576 54.1615 71.2178L54.4905 74.1627ZM47.2011 75.2238C45.9878 75.479 44.8371 75.7835 43.7631 76.1593L42.7825 73.3626C44.0056 72.9346 45.2846 72.5987 46.5899 72.3241L47.2011 75.2238ZM40.6517 77.6049C39.6933 78.1938 38.8471 78.8881 38.1255 79.7153L35.8892 77.7685C36.8294 76.6908 37.9135 75.8085 39.0976 75.0809L40.6517 77.6049ZM36.3995 82.4926C36.1893 82.9854 36.0033 83.5153 35.8446 84.086L32.9865 83.2929C33.1785 82.6023 33.4071 81.9488 33.6707 81.3308L36.3995 82.4926Z" fill="white"/>
<path d="M95.6011 115.201C85.0603 108.792 78.1921 103.053 76.0546 100.765C71.7106 96.1143 64.8031 92.7338 58.0172 93.1201C49.5348 93.6029 45.1431 99.1205 44.1407 101.611C42.8964 104.702 43.7942 108.354 47.4631 112.721C51.0476 116.987 59.1375 119.506 65.2141 119.852C71.2908 120.198 75.5749 121.321 85.5921 129.035C93.6059 135.207 98.898 133.483 100.542 131.849C104.177 127.723 105.272 121.081 95.6011 115.201Z" fill="white"/>
<path d="M107.878 163.637C95.6127 162.281 86.6661 162.635 83.5745 163.143C77.2916 164.175 69.7552 162.638 64.6179 158.192C58.1962 152.635 58.0916 145.586 58.8201 143.003C59.7245 139.796 62.6683 137.452 68.243 136.232C73.6894 135.041 81.635 137.982 86.6586 141.415C91.6821 144.848 95.7608 146.573 108.409 146.575C118.528 146.577 121.664 151.171 121.968 153.468C122.323 158.952 119.13 164.88 107.878 163.637Z" fill="white"/>
<path d="M79.5709 70.2079C76.8512 71.5295 73.5739 70.3983 72.251 67.6814C70.928 64.9644 72.0603 61.6905 74.78 60.3689C77.4998 59.0472 80.777 60.1784 82.1 62.8954C83.423 65.6123 82.2907 68.8862 79.5709 70.2079Z" fill="white" fill-opacity="0.2"/>
<path fill-rule="evenodd" clip-rule="evenodd" d="M72.9178 67.3573C74.0616 69.7064 76.8951 70.6843 79.2466 69.5417C81.598 68.399 82.577 65.5684 81.4331 63.2194C80.2893 60.8704 77.4558 59.8924 75.1044 61.035C72.753 62.1777 71.774 65.0083 72.9178 67.3573ZM72.251 67.6814C73.5739 70.3983 76.8512 71.5295 79.5709 70.2079C82.2907 68.8862 83.423 65.6123 82.1 62.8954C80.777 60.1784 77.4998 59.0472 74.78 60.3689C72.0603 61.6905 70.928 64.9644 72.251 67.6814Z" fill="white"/>
<path fill-rule="evenodd" clip-rule="evenodd" d="M71.2763 68.155C72.8611 71.4097 76.787 72.7647 80.045 71.1815C83.3031 69.5983 84.6595 65.6764 83.0747 62.4217C81.4898 59.167 77.5639 57.812 74.3059 59.3952C71.0479 60.9784 69.6915 64.9003 71.2763 68.155ZM70.6095 68.4791C72.3734 72.1017 76.7431 73.6099 80.3694 71.8477C83.9957 70.0855 85.5055 65.7203 83.7415 62.0977C81.9775 58.475 77.6079 56.9669 73.9815 58.729C70.3552 60.4912 68.8455 64.8564 70.6095 68.4791Z" fill="white"/>
<path d="M78.5728 68.1581C76.9863 68.929 75.0746 68.2692 74.3029 66.6843C73.5311 65.0994 74.1916 63.1896 75.7781 62.4187C77.3647 61.6477 79.2764 62.3075 80.0481 63.8924C80.8199 65.4773 80.1593 67.3871 78.5728 68.1581Z" fill="white"/>
<path d="M29.2379 98.6031C26.0974 99.4438 22.8694 97.5819 22.0279 94.4447C21.1864 91.3074 23.0501 88.0826 26.1906 87.242C29.3311 86.4014 32.5591 88.2632 33.4006 91.4005C34.2421 94.5377 32.3784 97.7625 29.2379 98.6031Z" fill="white" fill-opacity="0.2"/>
<path fill-rule="evenodd" clip-rule="evenodd" d="M22.7442 94.2529C23.4797 96.995 26.3011 98.6223 29.046 97.8875C31.7909 97.1528 33.4198 94.3343 32.6843 91.5922C31.9488 88.8501 29.1274 87.2228 26.3825 87.9576C23.6377 88.6923 22.0087 91.5108 22.7442 94.2529ZM22.0279 94.4447C22.8694 97.5819 26.0974 99.4438 29.2379 98.6031C32.3784 97.7625 34.2421 94.5377 33.4006 91.4005C32.5591 88.2632 29.3311 86.4014 26.1906 87.242C23.0501 88.0826 21.1864 91.3074 22.0279 94.4447Z" fill="white"/>
<path fill-rule="evenodd" clip-rule="evenodd" d="M20.8488 94.7603C21.8648 98.5481 25.7622 100.796 29.5539 99.7811C33.3456 98.7661 35.5957 94.8727 34.5798 91.0848C33.5638 87.297 29.6664 85.0491 25.8747 86.064C22.0829 87.079 19.8328 90.9724 20.8488 94.7603ZM20.1325 94.952C21.2544 99.1351 25.5585 101.618 29.7458 100.497C33.9331 99.3758 36.4181 95.0761 35.2961 90.8931C34.1741 86.71 29.87 84.2276 25.6827 85.3485C21.4954 86.4693 19.0105 90.769 20.1325 94.952Z" fill="white"/>
<path d="M28.6031 96.2362C26.7711 96.7266 24.8881 95.6406 24.3972 93.8105C23.9064 91.9804 24.9935 90.0993 26.8255 89.6089C28.6574 89.1185 30.5404 90.2046 31.0313 92.0347C31.5222 93.8648 30.435 95.7459 28.6031 96.2362Z" fill="white"/>
<path d="M117.118 40.5738C117.438 43.0077 115.723 45.2401 113.286 45.5601C110.85 45.8801 108.615 44.1664 108.295 41.7325C107.974 39.2986 109.69 37.0661 112.126 36.7462C114.563 36.4262 116.797 38.1399 117.118 40.5738Z" fill="white" fill-opacity="0.2"/>
<path fill-rule="evenodd" clip-rule="evenodd" d="M113.238 45.1929C115.471 44.8996 117.044 42.8531 116.75 40.622C116.456 38.391 114.408 36.8201 112.175 37.1134C109.941 37.4067 108.369 39.4532 108.662 41.6842C108.956 43.9153 111.005 45.4862 113.238 45.1929ZM113.286 45.5601C115.723 45.2401 117.438 43.0077 117.118 40.5738C116.797 38.1399 114.563 36.4262 112.126 36.7462C109.69 37.0661 107.974 39.2986 108.295 41.7325C108.615 44.1664 110.85 45.8801 113.286 45.5601Z" fill="white"/>
<path fill-rule="evenodd" clip-rule="evenodd" d="M113.431 46.6619C116.477 46.2619 118.621 43.4713 118.221 40.4289C117.82 37.3865 115.027 35.2444 111.981 35.6444C108.936 36.0444 106.792 38.835 107.192 41.8774C107.592 44.9198 110.386 47.0619 113.431 46.6619ZM113.48 47.0291C116.728 46.6025 119.015 43.6259 118.588 40.3806C118.161 37.1354 115.181 34.8505 111.933 35.2772C108.684 35.7038 106.397 38.6804 106.824 41.9257C107.251 45.1709 110.231 47.4558 113.48 47.0291Z" fill="white"/>
<path d="M115.28 40.8152C115.466 42.235 114.466 43.5372 113.045 43.7239C111.623 43.9105 110.32 42.9109 110.133 41.4911C109.946 40.0713 110.947 38.7691 112.368 38.5824C113.789 38.3957 115.093 39.3954 115.28 40.8152Z" fill="white"/>
</svg>
